<?xml version="1.0" encoding="utf-8"?>
<!-- Generator: Adobe Illustrator 15.0.0, SVG Export Plug-In  -->
<!DOCTYPE svg PUBLIC "-//W3C//DTD SVG 1.1//EN" "http://www.w3.org/Graphics/SVG/1.1/DTD/svg11.dtd" [
	<!ENTITY ns_flows "http://ns.adobe.com/Flows/1.0/">
]>
<svg version="1.1"
	 xmlns="http://www.w3.org/2000/svg" xmlns:xlink="http://www.w3.org/1999/xlink" xmlns:a="http://ns.adobe.com/AdobeSVGViewerExtensions/3.0/"
	 x="0px" y="0px" width="351px" height="106px" viewBox="-16.732 -18.686 351 106" enable-background="new -16.732 -18.686 351 106"
	 xml:space="preserve">
<defs>
</defs>
<path fill="#2E576E" d="M96.82,38.11c-2.313,5.76-7.735,9.273-14.19,9.273c-8.848,0-15.469-6.241-15.469-15.603
	c0-9.186,6.622-15.473,15.469-15.473c6.923,0,11.877,3.767,13.842,8.464l-5.893,1.624c-1.366-2.309-3.975-4.485-8.204-4.485
	c-5.511,0-9.232,3.933-9.232,9.91c0,6.116,3.929,9.963,9.19,9.963c4.226,0,7.221-2.22,8.635-5.216L96.82,38.11z"/>
<path fill="#2E576E" d="M124.604,33.792c0,8.802-4.878,13.592-12.658,13.592c-7.859,0-12.689-4.79-12.689-13.592V16.913h6.029
	v16.706c0,5.6,2.218,8.165,6.702,8.165c4.495,0,6.713-2.565,6.713-8.165V16.913h5.903V33.792z"/>
<path fill="#2E576E" d="M132.685,37.681c0.466,2.946,3.069,4.483,6.748,4.483c3.246,0,5.256-1.239,5.256-3.714
	c0-3.545-4.02-3.501-7.738-4.404c-4.059-0.94-9.142-2.691-9.142-8.928c0-5.813,4.351-8.81,10.942-8.81
	c5.904,0,10.17,2.438,11.751,7.696l-5.687,1.5c-0.769-2.52-2.729-3.936-6.194-3.936c-3.292,0-4.745,1.282-4.745,3.374
	c0,2.999,3.155,3.549,7.354,4.406c4.439,0.857,9.49,2.561,9.49,9.102c0,5.94-4.189,8.934-11.289,8.934
	c-5.128,0-10.983-1.586-12.434-8.165L132.685,37.681z"/>
<path fill="#2E576E" d="M181.701,38.11c-2.305,5.76-7.732,9.273-14.187,9.273c-8.849,0-15.478-6.241-15.478-15.603
	c0-9.186,6.628-15.473,15.478-15.473c6.92,0,11.882,3.767,13.839,8.464l-5.894,1.624c-1.362-2.309-3.969-4.485-8.198-4.485
	c-5.517,0-9.238,3.933-9.238,9.91c0,6.116,3.936,9.963,9.19,9.963c4.228,0,7.221-2.22,8.637-5.216L181.701,38.11z"/>
<path fill="#2E576E" d="M190.379,40.84l-2.266,5.986h-6.281l11.962-29.913h6.713l11.969,29.913h-6.367l-2.274-5.986H190.379z
	 M199.272,28.876c-1.031-2.566-2.049-5.21-2.099-5.256h-0.126c-0.044,0.046-1.067,2.65-2.09,5.256l-2.521,6.578h9.31L199.272,28.876
	z"/>
<path fill="#2E576E" d="M224.068,22.422v24.404h-5.952V22.422h-9.528v-5.509h25v5.509H224.068z"/>
<path fill="#2E576E" d="M236.416,16.913h5.94v24.4h14.188v5.513h-20.128V16.913z"/>
<path fill="#2E576E" d="M279.664,40.84h-13.466l-2.263,5.986h-6.282l11.962-29.913h6.72l11.964,29.913h-6.371L279.664,40.84
	 M275.092,28.876c-1.021-2.566-2.045-5.21-2.089-5.256h-0.141c-0.035,0.046-1.061,2.65-2.086,5.256l-2.521,6.578h9.315
	L275.092,28.876z"/>
<path fill="#2E576E" d="M296.375,26.82h-0.134c0,0.045,0.093,3.64,0.093,7.442v12.563h-5.935V16.913h6.018l14.317,19.701h0.13
	c0-0.045-0.084-3.759-0.084-7.05v-12.65h5.938v29.913h-6.027L296.375,26.82z"/>
<path fill="#2E576E" d="M75.245,5.176c1.052,0.128,2.51,0.882,2.51,2.643c0,1.723-1.332,2.923-3.524,2.923h-4.275V0.208h3.968
	c1.854,0,3.102,1.184,3.102,2.578c0,1.488-0.883,2.105-1.78,2.333V5.176z M73.711,4.82c1.094,0,2.263-0.595,2.263-1.902
	c0-0.998-0.85-1.787-2.239-1.787h-2.75V4.82H73.711z M74.202,9.819c1.409,0,2.483-0.737,2.483-2.018
	c0-1.329-1.163-2.121-2.573-2.121h-3.127v4.139H74.202z"/>
<path fill="#2E576E" d="M81.351,7.656l-1.255,3.085h-1.09l4.459-10.533h1.175l4.439,10.533H87.99l-1.286-3.085H81.351z
	 M85.229,4.083c-0.816-1.934-1.152-2.9-1.175-2.911h-0.039c0,0.01-0.408,1.067-1.236,3.042l-1.034,2.518h4.569L85.229,4.083z"/>
<path fill="#2E576E" d="M98.679,10.741l-6.516-8.95h-0.035c0,0.019,0.035,1.142,0.035,2.423v6.526h-1.03V0.208h1.064l6.482,8.835
	h0.03c0-0.014-0.03-1.107-0.03-2.312V0.208h1.042v10.533H98.679z"/>
<path fill="#2E576E" d="M112.57,7.898c-0.881,1.846-2.731,3.069-5.003,3.069c-3.141,0-5.531-2.32-5.531-5.49
	c0-3.159,2.39-5.478,5.51-5.478c2.031,0,4.029,0.961,4.924,3.109l-0.994,0.26c-0.26-0.452-1.243-2.392-3.878-2.392
	c-2.608,0-4.504,1.824-4.504,4.5c0,2.686,1.914,4.511,4.472,4.511c1.894,0,3.292-1.017,4.008-2.369L112.57,7.898z"/>
<path fill="#2E576E" d="M119.736,0c3.078,0,5.496,2.319,5.496,5.492c0,3.155-2.418,5.476-5.496,5.476
	c-3.067,0-5.475-2.32-5.475-5.476C114.262,2.319,116.669,0,119.736,0z M119.736,9.988c2.479,0,4.434-1.825,4.434-4.496
	c0-2.69-1.954-4.514-4.434-4.514c-2.49,0-4.417,1.824-4.417,4.514C115.319,8.164,117.246,9.988,119.736,9.988z"/>
<linearGradient id="SVGID_1_" gradientUnits="userSpaceOnUse" x1="1.5288" y1="41.1631" x2="48.7505" y2="41.1631">
	<stop  offset="0" style="stop-color:#C18F2C"/>
	<stop  offset="0.1291" style="stop-color:#C18F2C"/>
	<stop  offset="0.2558" style="stop-color:#FFCC6F"/>
	<stop  offset="0.5657" style="stop-color:#C18F2C"/>
	<stop  offset="0.8211" style="stop-color:#FFCC6F"/>
	<stop  offset="1" style="stop-color:#C18F2C"/>
</linearGradient>
<path fill="url(#SVGID_1_)" d="M42.216,46.909c-2.239-0.551-4.527-0.981-6.839-1.298c1.553-1.938,3.183-3.746,4.817-5.38
	c1.624-1.635,3.438-3.249,5.38-4.814c0.306,2.287,0.742,4.572,1.273,6.806C45.519,43.962,43.96,45.534,42.216,46.909z"/>
<linearGradient id="SVGID_2_" gradientUnits="userSpaceOnUse" x1="0.6367" y1="3.4531" x2="47.8603" y2="3.4531">
	<stop  offset="0" style="stop-color:#C18F2C"/>
	<stop  offset="0.1291" style="stop-color:#C18F2C"/>
	<stop  offset="0.2558" style="stop-color:#FFCC6F"/>
	<stop  offset="0.5657" style="stop-color:#C18F2C"/>
	<stop  offset="0.8211" style="stop-color:#FFCC6F"/>
	<stop  offset="1" style="stop-color:#C18F2C"/>
</linearGradient>
<path fill="url(#SVGID_2_)" d="M26.29,6.684c-2.333,0-4.745-0.14-7.203-0.41c1.417-1.868,2.749-3.836,3.981-5.859
	c1.066-0.124,2.06-0.192,3.049-0.192c1.106,0,2.262,0.084,3.421,0.239c1.213,1.991,2.544,3.946,3.955,5.812
	C31.04,6.544,28.609,6.684,26.29,6.684z"/>
<linearGradient id="SVGID_3_" gradientUnits="userSpaceOnUse" x1="-0.2646" y1="41.1953" x2="46.9868" y2="41.1953">
	<stop  offset="0" style="stop-color:#C18F2C"/>
	<stop  offset="0.1291" style="stop-color:#C18F2C"/>
	<stop  offset="0.2558" style="stop-color:#FFCC6F"/>
	<stop  offset="0.5657" style="stop-color:#C18F2C"/>
	<stop  offset="0.8211" style="stop-color:#FFCC6F"/>
	<stop  offset="1" style="stop-color:#C18F2C"/>
</linearGradient>
<path fill="url(#SVGID_3_)" d="M10.107,46.973c-1.653-1.286-3.155-2.775-4.465-4.432c0.582-2.367,1.045-4.757,1.374-7.124
	c1.954,1.575,3.727,3.149,5.376,4.811c1.643,1.642,3.261,3.447,4.808,5.384C14.834,45.935,12.46,46.392,10.107,46.973z"/>
<linearGradient id="SVGID_4_" gradientUnits="userSpaceOnUse" x1="-0.5786" y1="26.333" x2="46.2084" y2="26.333">
	<stop  offset="0" style="stop-color:#C18F2C"/>
	<stop  offset="0.1291" style="stop-color:#C18F2C"/>
	<stop  offset="0.2558" style="stop-color:#FFCC6F"/>
	<stop  offset="0.5657" style="stop-color:#C18F2C"/>
	<stop  offset="0.8211" style="stop-color:#FFCC6F"/>
	<stop  offset="1" style="stop-color:#C18F2C"/>
</linearGradient>
<path fill="url(#SVGID_4_)" d="M6.229,33.529c-1.892-1.444-3.932-2.82-6.05-4.099C0.055,28.362,0,27.351,0,26.353
	c0-1.001,0.067-2.052,0.195-3.12c2.102-1.271,4.136-2.647,6.034-4.096c0.272,2.467,0.406,4.883,0.406,7.201
	C6.635,28.649,6.501,31.069,6.229,33.529z"/>
<linearGradient id="SVGID_5_" gradientUnits="userSpaceOnUse" x1="0.6245" y1="49.3252" x2="46.4554" y2="49.3252">
	<stop  offset="0" style="stop-color:#C18F2C"/>
	<stop  offset="0.1291" style="stop-color:#C18F2C"/>
	<stop  offset="0.2558" style="stop-color:#FFCC6F"/>
	<stop  offset="0.5657" style="stop-color:#C18F2C"/>
	<stop  offset="0.8211" style="stop-color:#FFCC6F"/>
	<stop  offset="1" style="stop-color:#C18F2C"/>
</linearGradient>
<path fill="url(#SVGID_5_)" d="M21.796,52.114c-3.806-0.633-7.46-2.135-10.629-4.357c2.242-0.522,4.509-0.939,6.751-1.221
	C19.282,48.289,20.578,50.168,21.796,52.114z"/>
<linearGradient id="SVGID_6_" gradientUnits="userSpaceOnUse" x1="-0.4717" y1="36.1113" x2="45.2412" y2="36.1113">
	<stop  offset="0" style="stop-color:#C18F2C"/>
	<stop  offset="0.1291" style="stop-color:#C18F2C"/>
	<stop  offset="0.2558" style="stop-color:#FFCC6F"/>
	<stop  offset="0.5657" style="stop-color:#C18F2C"/>
	<stop  offset="0.8211" style="stop-color:#FFCC6F"/>
	<stop  offset="1" style="stop-color:#C18F2C"/>
</linearGradient>
<path fill="url(#SVGID_6_)" d="M4.857,41.505c-2.293-3.206-3.843-6.923-4.495-10.788c1.964,1.222,3.897,2.552,5.724,3.974
	C5.798,36.975,5.381,39.264,4.857,41.505z"/>
<linearGradient id="SVGID_7_" gradientUnits="userSpaceOnUse" x1="2.2832" y1="49.29" x2="47.9401" y2="49.29">
	<stop  offset="0" style="stop-color:#C18F2C"/>
	<stop  offset="0.1291" style="stop-color:#C18F2C"/>
	<stop  offset="0.2558" style="stop-color:#FFCC6F"/>
	<stop  offset="0.5657" style="stop-color:#C18F2C"/>
	<stop  offset="0.8211" style="stop-color:#FFCC6F"/>
	<stop  offset="1" style="stop-color:#C18F2C"/>
</linearGradient>
<path fill="url(#SVGID_7_)" d="M30.813,52.044c1.198-1.929,2.496-3.779,3.834-5.508c2.15,0.271,4.33,0.663,6.501,1.17
	C38.067,49.879,34.51,51.367,30.813,52.044z"/>
<linearGradient id="SVGID_8_" gradientUnits="userSpaceOnUse" x1="0.626" y1="49.2305" x2="47.8721" y2="49.2305">
	<stop  offset="0" style="stop-color:#C18F2C"/>
	<stop  offset="0.1291" style="stop-color:#C18F2C"/>
	<stop  offset="0.2558" style="stop-color:#FFCC6F"/>
	<stop  offset="0.5657" style="stop-color:#C18F2C"/>
	<stop  offset="0.8211" style="stop-color:#FFCC6F"/>
	<stop  offset="1" style="stop-color:#C18F2C"/>
</linearGradient>
<path fill="url(#SVGID_8_)" d="M26.117,52.475c-0.976,0-1.975-0.063-3.028-0.179c-1.236-2.053-2.573-4.031-4.002-5.904
	c2.458-0.26,4.87-0.404,7.203-0.404c2.32,0,4.745,0.145,7.198,0.404c-1.421,1.861-2.757,3.832-3.992,5.854
	C28.344,52.396,27.211,52.475,26.117,52.475z"/>
<linearGradient id="SVGID_9_" gradientUnits="userSpaceOnUse" x1="-0.5083" y1="26.334" x2="48.8283" y2="26.334">
	<stop  offset="0" style="stop-color:#C18F2C"/>
	<stop  offset="0.1291" style="stop-color:#C18F2C"/>
	<stop  offset="0.2558" style="stop-color:#FFCC6F"/>
	<stop  offset="0.5657" style="stop-color:#C18F2C"/>
	<stop  offset="0.8211" style="stop-color:#FFCC6F"/>
	<stop  offset="1" style="stop-color:#C18F2C"/>
</linearGradient>
<path fill="url(#SVGID_9_)" d="M18.364,45.464c-1.708-2.181-3.431-4.132-5.253-5.948c-1.802-1.803-3.804-3.572-5.944-5.265
	c0.313-2.711,0.48-5.38,0.48-7.913c0-2.584-0.153-5.175-0.48-7.931c2.144-1.688,4.142-3.459,5.944-5.26
	c1.813-1.813,3.537-3.765,5.253-5.942C21.13,7.528,23.719,7.69,26.29,7.69c2.575,0,5.164-0.162,7.925-0.485
	c1.72,2.173,3.436,4.129,5.256,5.942c1.797,1.801,3.799,3.572,5.948,5.26c-0.327,2.759-0.485,5.353-0.485,7.931
	c0,2.568,0.158,5.165,0.485,7.913c-2.142,1.69-4.144,3.462-5.948,5.265c-1.794,1.798-3.577,3.803-5.267,5.948
	c-2.742-0.326-5.334-0.482-7.914-0.482C23.719,44.981,21.133,45.138,18.364,45.464z M26.117,8.863
	c-9.639,0-17.484,7.845-17.484,17.49c0,9.644,7.845,17.486,17.484,17.486c9.639,0,17.492-7.843,17.492-17.486
	C43.609,16.708,35.756,8.863,26.117,8.863z"/>
<linearGradient id="SVGID_10_" gradientUnits="userSpaceOnUse" x1="-0.4658" y1="16.5718" x2="45.2007" y2="16.5718">
	<stop  offset="0" style="stop-color:#C18F2C"/>
	<stop  offset="0.1291" style="stop-color:#C18F2C"/>
	<stop  offset="0.2558" style="stop-color:#FFCC6F"/>
	<stop  offset="0.5657" style="stop-color:#C18F2C"/>
	<stop  offset="0.8211" style="stop-color:#FFCC6F"/>
	<stop  offset="1" style="stop-color:#C18F2C"/>
</linearGradient>
<path fill="url(#SVGID_10_)" d="M0.373,21.944c0.658-3.857,2.208-7.56,4.49-10.745c0.522,2.232,0.942,4.507,1.224,6.775
	C4.27,19.39,2.335,20.728,0.373,21.944z"/>
<linearGradient id="SVGID_11_" gradientUnits="userSpaceOnUse" x1="1.5083" y1="11.5068" x2="48.7581" y2="11.5068">
	<stop  offset="0" style="stop-color:#C18F2C"/>
	<stop  offset="0.1291" style="stop-color:#C18F2C"/>
	<stop  offset="0.2558" style="stop-color:#FFCC6F"/>
	<stop  offset="0.5657" style="stop-color:#C18F2C"/>
	<stop  offset="0.8211" style="stop-color:#FFCC6F"/>
	<stop  offset="1" style="stop-color:#C18F2C"/>
</linearGradient>
<path fill="url(#SVGID_11_)" d="M45.573,17.245c-1.941-1.553-3.756-3.176-5.38-4.81c-1.649-1.644-3.264-3.45-4.812-5.381
	c2.307-0.314,4.59-0.745,6.793-1.284c1.755,1.37,3.322,2.945,4.671,4.708C46.315,12.69,45.879,14.967,45.573,17.245z"/>
<linearGradient id="SVGID_12_" gradientUnits="userSpaceOnUse" x1="3.7495" y1="16.6309" x2="49.0814" y2="16.6309">
	<stop  offset="0" style="stop-color:#C18F2C"/>
	<stop  offset="0.1291" style="stop-color:#C18F2C"/>
	<stop  offset="0.2558" style="stop-color:#FFCC6F"/>
	<stop  offset="0.5657" style="stop-color:#C18F2C"/>
	<stop  offset="0.8211" style="stop-color:#FFCC6F"/>
	<stop  offset="1" style="stop-color:#C18F2C"/>
</linearGradient>
<path fill="url(#SVGID_12_)" d="M51.82,21.69c-1.891-1.193-3.679-2.441-5.323-3.716c0.258-2.12,0.65-4.275,1.146-6.402
	C49.73,14.604,51.162,18.087,51.82,21.69z"/>
<linearGradient id="SVGID_13_" gradientUnits="userSpaceOnUse" x1="3.7539" y1="36.0488" x2="49.0814" y2="36.0488">
	<stop  offset="0" style="stop-color:#C18F2C"/>
	<stop  offset="0.1291" style="stop-color:#C18F2C"/>
	<stop  offset="0.2558" style="stop-color:#FFCC6F"/>
	<stop  offset="0.5657" style="stop-color:#C18F2C"/>
	<stop  offset="0.8211" style="stop-color:#FFCC6F"/>
	<stop  offset="1" style="stop-color:#C18F2C"/>
</linearGradient>
<path fill="url(#SVGID_13_)" d="M47.643,41.128c-0.496-2.144-0.888-4.304-1.146-6.437c1.66-1.287,3.443-2.532,5.33-3.721
	C51.178,34.595,49.736,38.079,47.643,41.128z"/>
<linearGradient id="SVGID_14_" gradientUnits="userSpaceOnUse" x1="2.356" y1="26.333" x2="49.1022" y2="26.333">
	<stop  offset="0" style="stop-color:#C18F2C"/>
	<stop  offset="0.1291" style="stop-color:#C18F2C"/>
	<stop  offset="0.2558" style="stop-color:#FFCC6F"/>
	<stop  offset="0.5657" style="stop-color:#C18F2C"/>
	<stop  offset="0.8211" style="stop-color:#FFCC6F"/>
	<stop  offset="1" style="stop-color:#C18F2C"/>
</linearGradient>
<path fill="url(#SVGID_14_)" d="M46.342,33.529c-0.26-2.455-0.406-4.873-0.406-7.192c0-2.329,0.146-4.746,0.406-7.201
	c1.825,1.395,3.739,2.696,5.682,3.879c0.146,1.141,0.221,2.258,0.221,3.336c0,1.059-0.07,2.17-0.22,3.281
	C50.084,30.825,48.174,32.133,46.342,33.529z"/>
<linearGradient id="SVGID_15_" gradientUnits="userSpaceOnUse" x1="2.3481" y1="3.4004" x2="47.9246" y2="3.4004">
	<stop  offset="0" style="stop-color:#C18F2C"/>
	<stop  offset="0.1291" style="stop-color:#C18F2C"/>
	<stop  offset="0.2558" style="stop-color:#FFCC6F"/>
	<stop  offset="0.5657" style="stop-color:#C18F2C"/>
	<stop  offset="0.8211" style="stop-color:#FFCC6F"/>
	<stop  offset="1" style="stop-color:#C18F2C"/>
</linearGradient>
<path fill="url(#SVGID_15_)" d="M34.659,6.132c-1.317-1.706-2.587-3.544-3.783-5.462c3.652,0.676,7.177,2.159,10.231,4.311
	C38.961,5.47,36.797,5.855,34.659,6.132z"/>
<linearGradient id="SVGID_16_" gradientUnits="userSpaceOnUse" x1="-0.2646" y1="11.4717" x2="46.9927" y2="11.4717">
	<stop  offset="0" style="stop-color:#C18F2C"/>
	<stop  offset="0.1291" style="stop-color:#C18F2C"/>
	<stop  offset="0.2558" style="stop-color:#FFCC6F"/>
	<stop  offset="0.5657" style="stop-color:#C18F2C"/>
	<stop  offset="0.8211" style="stop-color:#FFCC6F"/>
	<stop  offset="1" style="stop-color:#C18F2C"/>
</linearGradient>
<path fill="url(#SVGID_16_)" d="M7.015,17.245c-0.329-2.366-0.786-4.741-1.365-7.091c1.31-1.657,2.83-3.161,4.493-4.456
	c2.335,0.585,4.711,1.03,7.056,1.355c-1.541,1.931-3.162,3.735-4.808,5.381C10.757,14.075,8.95,15.691,7.015,17.245z"/>
<linearGradient id="SVGID_17_" gradientUnits="userSpaceOnUse" x1="0.644" y1="3.3618" x2="46.4289" y2="3.3618">
	<stop  offset="0" style="stop-color:#C18F2C"/>
	<stop  offset="0.1291" style="stop-color:#C18F2C"/>
	<stop  offset="0.2558" style="stop-color:#FFCC6F"/>
	<stop  offset="0.5657" style="stop-color:#C18F2C"/>
	<stop  offset="0.8211" style="stop-color:#FFCC6F"/>
	<stop  offset="1" style="stop-color:#C18F2C"/>
</linearGradient>
<path fill="url(#SVGID_17_)" d="M17.915,6.132c-2.225-0.282-4.479-0.692-6.7-1.212c3.146-2.201,6.776-3.694,10.552-4.328
	C20.562,2.534,19.268,4.391,17.915,6.132z"/>
<g>
	<g>
		<path fill="#2E576E" d="M155.034,65.121h8.6v0.869h-3.812v9.955h-0.976V65.99h-3.813V65.121z"/>
		<path fill="#2E576E" d="M166.328,75.077c-0.76-0.747-1.142-1.912-1.142-3.491v-6.465h0.983v6.479c0,1.27,0.265,2.194,0.8,2.774
			c0.272,0.301,0.617,0.537,1.032,0.711c0.415,0.172,0.858,0.257,1.329,0.257c0.474,0,0.918-0.085,1.332-0.257
			c0.415-0.174,0.758-0.41,1.032-0.711c0.534-0.58,0.802-1.505,0.802-2.774v-6.479h0.983v6.465c0,1.579-0.38,2.744-1.144,3.491
			c-0.758,0.742-1.759,1.113-3.006,1.113C168.086,76.19,167.086,75.819,166.328,75.077z"/>
		<path fill="#2E576E" d="M178.193,65.121h4.412c1.089,0,1.922,0.239,2.503,0.718c0.578,0.481,0.868,1.164,0.868,2.049
			c0,1.19-0.496,2.005-1.485,2.448c0.613,0.207,1.083,0.54,1.413,0.993c0.327,0.456,0.491,1.01,0.491,1.667
			c0,0.904-0.308,1.622-0.922,2.154c-0.617,0.53-1.493,0.795-2.631,0.795h-4.649V65.121z M179.176,65.975v3.993h3.393
			c0.786,0,1.388-0.168,1.803-0.51c0.415-0.341,0.623-0.85,0.623-1.524c0-1.307-0.811-1.959-2.426-1.959H179.176z M179.176,70.793
			v4.3h3.521c1.81,0,2.715-0.703,2.715-2.112c0-0.727-0.231-1.273-0.694-1.641c-0.463-0.364-1.136-0.547-2.021-0.547H179.176z"/>
		<path fill="#2E576E" d="M194.227,72.905h-5.07l-1.157,3.04h-1.021l4.229-10.824h0.977l4.232,10.824h-1.021L194.227,72.905z
			 M189.492,72.036h4.407l-2.202-5.758L189.492,72.036z"/>
		<path fill="#2E576E" d="M198.399,66.813v9.132h-0.982V65.121h0.9l6.325,9.133v-9.133h0.983v10.824h-0.898L198.399,66.813z"/>
		<path fill="#2E576E" d="M214.612,74.456c0.7-0.593,1.147-1.407,1.341-2.444h0.997c-0.197,1.263-0.731,2.272-1.604,3.035
			c-0.872,0.762-1.909,1.144-3.114,1.144c-0.949,0-1.803-0.236-2.554-0.709c-0.753-0.473-1.342-1.142-1.769-2.001
			c-0.426-0.862-0.641-1.845-0.641-2.946c0-1.104,0.215-2.085,0.641-2.947c0.427-0.861,1.016-1.53,1.769-2.001
			c0.751-0.474,1.604-0.709,2.554-0.709c1.205,0,2.242,0.382,3.114,1.144c0.873,0.761,1.407,1.774,1.604,3.033h-0.997
			c-0.193-1.03-0.641-1.845-1.341-2.439c-0.698-0.594-1.498-0.892-2.396-0.892c-0.54,0-1.048,0.109-1.526,0.327
			c-0.482,0.22-0.902,0.527-1.263,0.931c-0.36,0.402-0.647,0.909-0.856,1.521c-0.211,0.611-0.318,1.289-0.318,2.032
			c0,0.74,0.107,1.418,0.318,2.031c0.209,0.612,0.496,1.119,0.856,1.521c0.36,0.401,0.78,0.71,1.263,0.929
			c0.479,0.218,0.986,0.327,1.526,0.327C213.114,75.343,213.914,75.047,214.612,74.456z"/>
		<path fill="#2E576E" d="M220.787,75.481c-0.767-0.473-1.366-1.138-1.794-1.998c-0.431-0.859-0.646-1.841-0.646-2.949
			c0-1.107,0.215-2.093,0.646-2.951c0.428-0.859,1.027-1.526,1.794-1.997c0.769-0.474,1.643-0.709,2.622-0.709
			c0.981,0,1.855,0.235,2.624,0.709c0.767,0.471,1.366,1.138,1.796,1.997c0.429,0.858,0.642,1.844,0.642,2.951
			c0,1.108-0.213,2.09-0.642,2.949c-0.43,0.86-1.029,1.525-1.796,1.998c-0.769,0.473-1.643,0.709-2.624,0.709
			C222.43,76.19,221.556,75.954,220.787,75.481z M224.988,75.012c0.493-0.222,0.926-0.531,1.297-0.932
			c0.371-0.403,0.662-0.911,0.881-1.523c0.214-0.611,0.321-1.287,0.321-2.022c0-0.738-0.107-1.414-0.321-2.025
			c-0.219-0.612-0.51-1.119-0.881-1.52c-0.371-0.403-0.804-0.714-1.297-0.936c-0.492-0.22-1.02-0.331-1.579-0.331
			s-1.083,0.111-1.577,0.331c-0.492,0.222-0.925,0.532-1.296,0.936c-0.373,0.4-0.665,0.907-0.882,1.52
			c-0.214,0.611-0.323,1.287-0.323,2.025c0,0.735,0.109,1.411,0.323,2.022c0.217,0.612,0.509,1.12,0.882,1.523
			c0.371,0.4,0.804,0.71,1.296,0.932c0.494,0.222,1.018,0.331,1.577,0.331S224.496,75.233,224.988,75.012z"/>
		<path fill="#2E576E" d="M229.853,74.309h1.106v1.425c0,0.31-0.049,0.64-0.151,0.991l-0.251,0.883h-0.672l0.473-1.662h-0.505
			V74.309z"/>
		<path fill="#2E576E" d="M235.31,65.121h8.599v0.869h-3.812v9.955h-0.976V65.99h-3.812V65.121z"/>
		<path fill="#2E576E" d="M246.603,75.077c-0.762-0.747-1.144-1.912-1.144-3.491v-6.465h0.983v6.479c0,1.27,0.267,2.194,0.802,2.774
			c0.272,0.301,0.617,0.537,1.032,0.711c0.413,0.172,0.858,0.257,1.329,0.257c0.474,0,0.918-0.085,1.333-0.257
			c0.412-0.174,0.757-0.41,1.033-0.711c0.532-0.58,0.8-1.505,0.8-2.774v-6.479h0.983v6.465c0,1.579-0.382,2.744-1.146,3.491
			c-0.756,0.742-1.759,1.113-3.004,1.113S247.36,75.819,246.603,75.077z"/>
		<path fill="#2E576E" d="M258.466,65.121h7.066v0.869h-6.083v4.192h5.407v0.869h-5.407v4.894h-0.983V65.121z"/>
		<path fill="#2E576E" d="M268.137,75.077c-0.764-0.747-1.144-1.912-1.144-3.491v-6.465h0.983v6.479c0,1.27,0.268,2.194,0.802,2.774
			c0.272,0.301,0.617,0.537,1.032,0.711c0.413,0.172,0.858,0.257,1.332,0.257c0.471,0,0.914-0.085,1.329-0.257
			c0.411-0.174,0.756-0.41,1.032-0.711c0.533-0.58,0.8-1.505,0.8-2.774v-6.479h0.983v6.465c0,1.579-0.382,2.744-1.142,3.491
			c-0.758,0.742-1.759,1.113-3.003,1.113C269.896,76.19,268.895,75.819,268.137,75.077z"/>
		<path fill="#2E576E" d="M276.837,65.121h8.601v0.869h-3.814v9.955h-0.974V65.99h-3.813V65.121z"/>
		<path fill="#2E576E" d="M288.131,75.077c-0.764-0.747-1.144-1.912-1.144-3.491v-6.465h0.983v6.479c0,1.27,0.269,2.194,0.802,2.774
			c0.272,0.301,0.617,0.537,1.032,0.711c0.415,0.172,0.858,0.257,1.331,0.257c0.474,0,0.916-0.085,1.33-0.257
			c0.413-0.174,0.758-0.41,1.032-0.711c0.534-0.58,0.8-1.505,0.8-2.774v-6.479h0.983v6.465c0,1.579-0.38,2.744-1.144,3.491
			c-0.756,0.742-1.757,1.113-3.002,1.113C289.889,76.19,288.891,75.819,288.131,75.077z"/>
		<path fill="#2E576E" d="M304.25,65.975c0.605,0.567,0.907,1.377,0.907,2.423c0,0.783-0.172,1.434-0.515,1.949
			c-0.344,0.515-0.832,0.884-1.462,1.103l2.464,4.496h-1.076l-2.309-4.3c-0.169,0.017-0.342,0.025-0.52,0.025h-3.619v4.274h-0.982
			V65.121h4.602C302.808,65.121,303.646,65.404,304.25,65.975z M298.121,65.99v4.81h3.537c0.76,0,1.371-0.193,1.828-0.578
			c0.458-0.387,0.687-0.996,0.687-1.824s-0.229-1.437-0.687-1.823c-0.457-0.391-1.068-0.584-1.828-0.584H298.121z"/>
		<path fill="#2E576E" d="M308.896,75.481c-0.769-0.473-1.365-1.138-1.796-1.998c-0.431-0.859-0.646-1.841-0.646-2.949
			c0-1.107,0.215-2.093,0.646-2.951c0.431-0.859,1.027-1.526,1.796-1.997c0.767-0.474,1.641-0.709,2.622-0.709
			c0.979,0,1.855,0.235,2.622,0.709c0.769,0.471,1.364,1.138,1.796,1.997c0.431,0.858,0.646,1.844,0.646,2.951
			c0,1.108-0.215,2.09-0.646,2.949c-0.432,0.86-1.027,1.525-1.796,1.998c-0.767,0.473-1.643,0.709-2.622,0.709
			C310.537,76.19,309.663,75.954,308.896,75.481z M313.096,75.012c0.492-0.222,0.926-0.531,1.297-0.932
			c0.37-0.403,0.666-0.911,0.881-1.523c0.214-0.611,0.323-1.287,0.323-2.022c0-0.738-0.109-1.414-0.323-2.025
			c-0.215-0.612-0.511-1.119-0.881-1.52c-0.371-0.403-0.805-0.714-1.297-0.936c-0.492-0.22-1.02-0.331-1.577-0.331
			c-0.56,0-1.085,0.111-1.579,0.331c-0.491,0.222-0.924,0.532-1.295,0.936c-0.371,0.4-0.666,0.907-0.881,1.52
			c-0.218,0.611-0.325,1.287-0.325,2.025c0,0.735,0.107,1.411,0.325,2.022c0.215,0.612,0.51,1.12,0.881,1.523
			c0.371,0.4,0.804,0.71,1.295,0.932c0.494,0.222,1.02,0.331,1.579,0.331C312.076,75.343,312.604,75.233,313.096,75.012z"/>
	</g>
</g>
</svg>
